<?xml version="1.0" standalone="no"?>
<!DOCTYPE svg PUBLIC "-//W3C//DTD SVG 20010904//EN"
 "http://www.w3.org/TR/2001/REC-SVG-20010904/DTD/svg10.dtd">
<svg version="1.0" xmlns="http://www.w3.org/2000/svg"
 width="421.000000pt" height="592.000000pt" viewBox="0 0 421.000000 592.000000"
 preserveAspectRatio="xMidYMid meet">

<g transform="translate(0.000000,592.000000) scale(0.100000,-0.100000)"
fill="#000000" stroke="none">
<path d="M4018 5736 c-48 -32 -59 -52 -34 -62 22 -9 95 47 96 74 0 28 -4 27
-62 -12z"/>
<path d="M3940 5671 c0 -6 5 -13 10 -16 6 -3 10 1 10 9 0 9 -4 16 -10 16 -5 0
-10 -4 -10 -9z"/>
<path d="M4053 5642 c-18 -9 -33 -20 -33 -25 0 -6 12 -30 26 -54 35 -60 25
-64 -16 -5 -39 55 -55 40 -17 -16 37 -57 42 -79 17 -87 -26 -8 -60 3 -60 20 0
25 -44 67 -62 60 -10 -4 -16 -11 -13 -15 3 -5 -22 -30 -56 -56 -37 -28 -65
-59 -72 -77 -10 -29 -11 -29 -18 -9 -6 15 -14 20 -26 15 -35 -12 -124 -85
-133 -109 -5 -13 -13 -24 -18 -24 -5 0 -58 -36 -117 -80 -59 -44 -116 -80
-127 -80 -10 0 -21 -6 -24 -14 -5 -14 12 -56 27 -66 4 -3 10 -17 14 -31 5 -19
2 -28 -10 -33 -21 -8 -52 9 -60 33 -3 10 -15 27 -27 37 -21 19 -21 19 -14 -11
4 -16 15 -38 23 -48 9 -9 14 -20 10 -23 -3 -3 -10 4 -17 15 -15 30 -27 26 -40
-13 -12 -39 -60 -90 -105 -114 -49 -25 -137 -43 -152 -30 -23 19 -25 1 -4 -41
12 -22 21 -44 21 -49 0 -10 -156 -128 -205 -156 -17 -9 -84 -54 -150 -101 -66
-46 -148 -102 -181 -124 l-62 -39 -63 45 c-203 141 -220 147 -377 141 -99 -5
-133 -11 -222 -41 -58 -19 -134 -43 -170 -52 -131 -33 -193 -59 -237 -100 -41
-38 -45 -45 -59 -125 -32 -188 -28 -339 13 -457 9 -27 19 -67 23 -91 7 -41 6
-43 -26 -58 -18 -9 -38 -13 -44 -9 -7 4 -14 -2 -17 -14 -3 -12 -12 -21 -19
-21 -8 0 -14 -4 -14 -9 0 -5 -8 -8 -18 -7 -11 0 -16 -5 -14 -16 1 -9 -2 -19
-8 -23 -5 -3 -10 1 -10 9 0 9 -5 16 -11 16 -5 0 -7 5 -4 10 3 6 2 10 -3 10
-20 0 -20 -15 0 -54 12 -22 23 -35 25 -28 3 6 11 12 18 12 8 0 20 9 28 20 20
28 58 15 47 -16 -9 -23 -115 -83 -127 -71 -4 5 -1 13 7 18 11 8 12 12 3 16 -7
2 -13 11 -13 19 0 21 -13 17 -60 -18 -84 -64 -91 -67 -136 -61 l-42 5 -4 -72
c-2 -54 1 -75 12 -85 8 -7 68 -36 133 -65 93 -42 120 -50 132 -40 7 6 24 10
37 8 18 -2 25 -13 34 -48 6 -25 9 -47 7 -50 -2 -2 -27 -4 -56 -5 -49 0 -52 -2
-52 -25 0 -31 35 -50 92 -50 40 0 42 1 45 33 l3 32 88 8 c60 6 92 5 101 -2 14
-12 37 -79 42 -125 2 -16 10 -37 18 -45 7 -9 20 -34 27 -56 7 -22 17 -45 21
-50 4 -6 23 -44 44 -85 39 -79 45 -87 87 -114 34 -23 35 -11 2 63 -54 119
-162 426 -154 435 13 14 48 16 99 6 67 -13 221 -22 219 -13 -3 18 2 33 11 33
5 0 12 -15 16 -34 4 -25 16 -42 42 -59 21 -13 65 -50 100 -81 35 -31 74 -63
87 -72 14 -9 25 -22 25 -28 0 -14 -155 -141 -208 -172 -21 -11 -50 -28 -67
-37 -16 -10 -48 -28 -70 -40 -53 -29 -80 -83 -80 -162 0 -49 7 -75 38 -139 33
-70 35 -78 17 -73 -11 3 -23 1 -26 -5 -3 -5 -23 -7 -45 -3 -23 4 -45 2 -52 -3
-18 -15 -91 -8 -120 11 -28 18 -77 23 -77 8 0 -20 43 -61 87 -82 65 -31 245
-39 332 -15 32 9 65 14 72 11 8 -2 70 -9 139 -15 110 -9 134 -14 199 -45 88
-42 125 -44 194 -8 29 15 72 30 97 34 91 16 110 21 110 31 0 5 -4 7 -9 4 -5
-3 -14 0 -20 8 -19 23 9 37 59 28 55 -9 66 -32 16 -32 -20 0 -36 -3 -36 -8 0
-4 19 -6 43 -4 33 3 50 -2 76 -22 35 -26 35 -26 9 -26 -28 0 -41 -19 -28 -41
7 -11 15 -10 46 4 45 22 63 11 46 -28 -14 -31 -7 -48 16 -41 37 12 114 9 122
-4 10 -15 1 -23 -69 -62 -23 -13 -43 -29 -44 -34 0 -5 17 -19 37 -30 l38 -22
-51 -12 c-30 -7 -51 -17 -51 -26 0 -7 19 -35 43 -61 23 -27 73 -91 112 -143
38 -52 95 -130 127 -173 32 -43 66 -93 75 -110 9 -18 31 -52 50 -76 18 -24 33
-52 33 -61 0 -10 13 -23 33 -31 17 -7 43 -21 56 -31 35 -27 53 -23 49 9 -3 26
0 27 42 31 55 4 213 56 249 81 14 10 62 28 107 39 45 11 124 39 177 61 53 23
99 41 102 41 4 0 23 7 42 16 l34 17 -5 316 c-3 174 -5 376 -5 448 l-1 133 -44
45 c-25 25 -68 80 -95 122 l-51 77 0 87 c0 48 -5 110 -12 138 -9 39 -9 57 1
77 9 21 14 24 26 14 8 -7 15 -9 15 -6 0 4 -44 99 -99 211 -155 319 -272 474
-621 825 -69 69 -142 147 -163 173 -57 70 -84 81 -164 67 -73 -12 -84 -9 -60
18 22 24 22 35 0 23 -10 -5 -29 -8 -43 -7 -15 1 -33 -6 -43 -18 l-19 -21 5 22
c4 19 2 20 -19 11 -17 -8 -27 -8 -38 1 -8 7 -25 9 -40 5 -41 -10 -87 -11 -93
-1 -3 4 -12 6 -20 3 -9 -4 -22 -1 -29 5 -7 6 -17 8 -22 5 -12 -7 -81 82 -112
143 l-22 45 21 17 c12 10 90 53 174 97 83 43 211 114 282 157 72 43 170 98
220 124 155 80 863 562 956 651 44 42 47 49 53 110 9 89 3 223 -9 225 -5 1
-25 -5 -42 -13z m-318 -298 c0 -14 -6 -18 -24 -16 -34 3 -38 10 -15 27 24 18
39 14 39 -11z m-77 -55 c-7 -5 -8 -9 -3 -9 6 0 3 -4 -4 -9 -9 -6 -22 -6 -35 1
-19 10 -19 11 5 29 17 13 27 15 37 7 11 -9 11 -13 0 -19z m-8 -68 c0 -6 -4
-13 -10 -16 -5 -3 -10 1 -10 9 0 9 5 16 10 16 6 0 10 -4 10 -9z m-2229 -1147
c43 -39 5 -148 -73 -208 -68 -51 -101 -26 -100 78 0 78 13 111 54 136 38 24
89 21 119 -6z m987 -106 c-9 -7 -23 -26 -32 -43 l-15 -30 -1 32 c0 32 19 52
49 53 12 0 12 -2 -1 -12z m43 -69 c35 -25 37 -34 5 -35 -16 -1 -27 6 -35 23
-19 41 -13 43 30 12z m-993 -47 c-2 -9 -20 -25 -41 -36 -32 -17 -40 -18 -47
-6 -11 18 15 50 42 50 10 0 18 4 18 10 0 5 7 7 15 3 9 -3 15 -13 13 -21z m842
-3 c0 -4 15 -25 34 -45 19 -21 33 -41 30 -45 -2 -4 0 -10 6 -14 5 -3 10 -1 10
6 0 8 6 7 18 -4 12 -11 22 -13 32 -6 13 8 13 11 -2 20 -10 5 -18 17 -18 24 0
8 -7 15 -16 15 -8 0 -12 5 -9 10 10 17 50 11 73 -10 26 -24 27 -33 7 -50 -8
-7 -15 -19 -15 -26 0 -8 -7 -14 -16 -14 -11 0 -13 -6 -9 -19 3 -11 1 -22 -5
-26 -6 -3 -8 -11 -5 -16 12 -18 36 -9 48 19 17 35 58 102 64 102 2 0 1 -5 -2
-10 -4 -6 -4 -19 0 -28 6 -14 9 -13 18 8 l10 25 5 -24 c2 -13 -2 -27 -8 -31
-9 -6 -9 -12 1 -28 28 -44 -42 -130 -96 -116 -25 6 -26 5 -23 -35 2 -22 7 -41
12 -41 4 0 6 -9 3 -21 -3 -12 -2 -32 3 -45 5 -13 6 -26 1 -28 -4 -3 -8 -19 -9
-35 0 -17 -12 -50 -27 -75 -24 -42 -28 -44 -51 -34 -13 6 -24 16 -24 22 0 16
-38 38 -45 26 -3 -6 1 -10 9 -10 18 0 21 -16 6 -25 -6 -4 -8 -11 -5 -16 4 -5
-2 -9 -12 -9 -11 0 -14 -3 -7 -8 18 -12 23 -50 8 -69 -19 -25 -17 -33 8 -33
l21 0 -23 -25 c-13 -14 -24 -33 -25 -43 -6 -66 -20 -106 -46 -133 -33 -34 -45
-36 -52 -9 -3 11 0 20 6 20 7 0 5 5 -3 10 -13 9 -13 11 -1 19 10 6 -3 11 -43
16 l-57 7 40 38 c47 44 50 55 19 71 -47 24 -81 80 -57 94 19 12 8 49 -21 74
-27 23 -29 30 -22 56 10 33 4 95 -8 95 -5 0 -10 10 -12 23 -2 14 -11 23 -24
25 -23 3 -38 34 -24 49 5 4 15 25 24 46 15 37 15 37 -12 51 -15 8 -40 12 -55
9 -15 -3 -27 -2 -27 1 0 11 100 106 111 106 6 0 9 6 7 12 -3 7 6 21 19 31 28
22 52 16 98 -24 67 -59 150 -45 127 21 -9 25 -8 48 4 87 3 13 34 7 34 -8z
m120 1 c0 -15 -53 -22 -61 -8 -4 7 -3 15 2 19 13 8 59 -1 59 -11z m-1083 -62
c-3 -8 -6 -5 -6 6 -1 11 2 17 5 13 3 -3 4 -12 1 -19z m-32 -38 c3 -5 3 -15 -1
-21 -6 -11 -23 6 -24 24 0 10 18 9 25 -3z m1308 -46 c-3 -8 1 -14 11 -14 18 0
22 -15 6 -25 -14 -9 -12 -25 3 -25 23 0 24 -133 1 -167 -7 -12 -14 -31 -14
-42 0 -23 -13 -33 -47 -37 -18 -2 -27 4 -34 24 -6 15 -20 47 -32 70 -20 41
-21 45 -4 57 68 50 66 45 73 127 6 75 7 78 25 62 10 -9 15 -22 12 -30z m-747
-221 c-7 -7 -26 7 -26 19 0 6 6 6 15 -2 9 -7 13 -15 11 -17z m-123 -81 c15
-15 27 -32 27 -38 0 -10 43 -50 48 -45 7 8 62 -13 62 -24 0 -7 7 -15 15 -19 8
-3 15 -12 15 -21 0 -8 5 -15 10 -15 15 0 12 -38 -6 -65 -11 -18 -25 -25 -47
-25 -17 0 -44 -11 -62 -25 -35 -26 -45 -24 -45 10 0 16 12 27 43 41 37 17 49
38 22 39 -24 1 -55 17 -55 30 0 7 -7 15 -15 19 -8 3 -21 18 -27 33 -7 15 -23
45 -36 65 -42 64 -2 95 51 40z m857 -26 c0 -3 -4 -8 -10 -11 -5 -3 -10 -1 -10
4 0 6 5 11 10 11 6 0 10 -2 10 -4z m-1255 -272 c7 -39 1 -50 -29 -56 -15 -2
-21 5 -28 32 -10 46 -4 60 26 60 19 0 25 -6 31 -36z m592 18 c-10 -10 -14 -22
-10 -25 10 -11 61 -8 68 3 9 15 52 12 52 -4 0 -8 -6 -12 -14 -9 -8 3 -13 0
-11 -8 3 -15 -5 -15 -34 -4 -11 4 -18 3 -18 -4 0 -6 5 -11 12 -11 6 0 9 -3 6
-6 -4 -3 -18 2 -31 11 -25 16 -25 16 -20 -5 4 -16 2 -19 -11 -14 -10 4 -15 12
-12 19 3 8 -2 11 -15 8 -11 -3 -19 0 -19 6 0 7 -4 9 -10 6 -5 -3 -10 1 -10 9
0 9 -8 17 -17 17 -10 1 7 7 37 14 75 17 75 17 57 -3z m30 -7 c-15 -16 -19 -13
-11 9 3 9 10 13 15 10 5 -3 3 -11 -4 -19z m1787 19 c14 -5 116 -136 116 -149
0 -2 15 -28 34 -57 18 -29 37 -64 41 -76 14 -46 -41 5 -69 63 -19 40 -30 53
-41 49 -28 -11 -29 -51 -2 -97 l26 -43 -30 -52 c-16 -29 -33 -52 -37 -52 -12
0 -59 82 -72 125 -6 22 -26 68 -43 102 l-30 62 33 65 c33 65 42 72 74 60z
m-1164 -1084 c0 -5 -7 -10 -16 -10 -8 0 -12 5 -9 10 3 6 10 10 16 10 5 0 9 -4
9 -10z"/>
<path d="M3705 5340 c3 -5 8 -10 11 -10 2 0 4 5 4 10 0 6 -5 10 -11 10 -5 0
-7 -4 -4 -10z"/>
<path d="M1316 4021 c-15 -16 -15 -19 -2 -24 17 -7 12 -31 -12 -59 -30 -36 26
-11 71 30 30 28 35 45 12 36 -10 -4 -15 0 -15 15 0 27 -31 28 -54 2z"/>
<path d="M3795 5569 c-51 -39 -57 -55 -11 -32 19 10 36 22 36 27 0 5 8 15 18
22 9 7 13 13 7 13 -5 0 -28 -14 -50 -30z"/>
<path d="M3169 4941 c-21 -37 -72 -75 -134 -100 l-50 -20 36 0 c59 -1 149 67
172 132 10 27 -6 20 -24 -12z"/>
<path d="M3096 4925 c-22 -17 -17 -29 8 -19 9 3 16 12 16 20 0 17 0 17 -24 -1z"/>
<path d="M4030 2658 c0 -63 45 -196 79 -232 11 -12 24 -32 30 -46 9 -24 10
-23 10 10 1 76 -56 246 -103 305 -14 19 -15 17 -16 -37z"/>
<path d="M2656 1949 c-24 -81 -22 -90 43 -152 60 -58 74 -64 101 -47 12 7 12
12 -4 29 -18 20 -18 21 13 38 44 25 39 35 -14 27 -41 -6 -45 -4 -45 15 0 15
-6 20 -21 18 -20 -2 -22 3 -23 58 -1 47 -4 60 -18 63 -13 2 -21 -10 -32 -49z"/>
<path d="M2580 1979 c0 -6 5 -20 11 -32 l12 -21 9 23 c4 12 6 27 2 32 -7 13
-34 11 -34 -2z"/>
<path d="M3385 120 c-17 -7 -14 -9 13 -9 20 -1 31 3 27 9 -7 12 -13 12 -40 0z"/>
</g>
</svg>
