<svg width="156" height="161" viewBox="0 0 156 161" fill="none" xmlns="http://www.w3.org/2000/svg">
<g filter="url(#filter0_d_135_4)">
<rect y="5" width="150" height="150" rx="16" fill="#EEF3FC"/>
<rect x="0.5" y="5.5" width="149" height="149" rx="15.5" stroke="black"/>
</g>
<mask id="path-3-inside-1_135_4" fill="white">
<path d="M0 21C0 12.1634 7.16344 5 16 5H75V80H0V21Z"/>
</mask>
<path d="M0 21C0 12.1634 7.16344 5 16 5H75V80H0V21Z" fill="#B3A3F2"/>
<path d="M-2 21C-2 11.0589 6.05887 3 16 3H75V7H16C8.26801 7 2 13.268 2 21H-2ZM75 80H0H75ZM-2 80V21C-2 11.0589 6.05887 3 16 3V7C8.26801 7 2 13.268 2 21V80H-2ZM75 5V80V5Z" fill="black" mask="url(#path-3-inside-1_135_4)"/>
<path d="M29.0148 71.28V70.14C30.8148 70.1 32.3148 69.66 33.5148 68.82C34.7548 67.98 35.6748 66.58 36.2748 64.62C36.9148 62.7 37.2348 60.12 37.2348 56.88V23.88C37.2348 22.4 37.1148 21.32 36.8748 20.64C36.6348 19.92 36.1548 19.44 35.4348 19.2C34.7548 18.92 33.7348 18.76 32.3748 18.72V17.52C33.2148 17.56 34.3148 17.6 35.6748 17.64C37.0348 17.68 38.4548 17.7 39.9348 17.7C41.4148 17.7 42.8348 17.68 44.1948 17.64C45.5948 17.6 46.7548 17.56 47.6748 17.52V18.72C46.3148 18.76 45.2748 18.92 44.5548 19.2C43.8748 19.44 43.4148 19.92 43.1748 20.64C42.9348 21.32 42.8148 22.4 42.8148 23.88V45.84C42.8148 47.48 42.7948 49.26 42.7548 51.18C42.7148 53.1 42.6148 54.96 42.4548 56.76C42.3348 58.56 42.1148 60.14 41.7948 61.5C41.1148 64.3 39.6748 66.62 37.4748 68.46C35.3148 70.34 32.4948 71.28 29.0148 71.28Z" fill="black"/>
<mask id="path-6-inside-2_135_4" fill="white">
<path d="M75 5H134C142.837 5 150 12.1634 150 21V80H75V5Z"/>
</mask>
<path d="M75 5H134C142.837 5 150 12.1634 150 21V80H75V5Z" fill="#E8EA76"/>
<path d="M74 3H134C143.941 3 152 11.0589 152 21H148C148 13.268 141.732 7 134 7H76L74 3ZM150 80H75H150ZM74 80V3L76 7V80H74ZM134 3C143.941 3 152 11.0589 152 21V80H148V21C148 13.268 141.732 7 134 7V3Z" fill="black" mask="url(#path-6-inside-2_135_4)"/>
<path d="M114.565 18C106.514 18 100.729 21.0703 96.9087 25.625C93.0884 30.1797 91.1861 36.1367 90.4712 41.9688C90.1704 44.5352 89.7837 48.25 89.2525 51.8438C88.7212 55.4375 88.0298 58.9336 87.1587 61C86.9439 61.332 86.9478 61.7617 87.1665 62.0938C87.3853 62.4219 87.7798 62.5937 88.1704 62.5234C88.5611 62.457 88.8736 62.1641 88.9712 61.7812C89.9986 59.3477 90.7095 55.7812 91.2525 52.125C91.7954 48.4688 92.1743 44.7539 92.4712 42.2188C93.1548 36.6523 94.9947 31.0508 98.4712 26.9062C101.948 22.7617 107.014 20 114.565 20C119.217 20 121.881 21.0391 123.44 22.1562C124.315 22.7812 124.842 23.4297 125.19 24C124.26 24.0156 123.413 24.3906 122.971 25.0625C122.522 25.75 122.514 26.5117 122.565 27.2188C122.667 28.6211 123.112 30.0859 123.159 31C123.159 31.0078 123.159 31.0234 123.159 31.0312C123.159 31.0938 123.143 31.1016 123.065 31.1875C122.975 31.2891 122.776 31.4453 122.471 31.5938C121.862 31.8906 120.889 32.1719 119.877 32.4688C118.866 32.7656 117.819 33.1055 116.909 33.6562C115.999 34.207 115.159 35.1641 115.159 36.4062C115.159 37.4102 115.823 38.1758 116.565 38.6562C117.307 39.1367 118.221 39.457 119.159 39.6562C119.979 39.8281 120.807 39.918 121.596 39.9375C121.237 40.7305 120.971 41.7812 120.971 43.0938C120.971 44.3672 121.299 46.168 121.784 48.3438C122.268 50.5195 122.897 53.043 123.534 55.5312C124.17 58.0195 124.811 60.4727 125.284 62.5312C125.756 64.5898 126.065 66.3047 126.065 67C126.061 67.3594 126.249 67.6953 126.561 67.8789C126.874 68.0586 127.256 68.0586 127.569 67.8789C127.881 67.6953 128.069 67.3594 128.065 67C128.065 65.8438 127.737 64.1914 127.252 62.0938C126.768 59.9961 126.108 57.5195 125.471 55.0312C124.835 52.543 124.225 50.0352 123.752 47.9062C123.28 45.7773 122.971 43.9727 122.971 43.0938C122.971 41.7266 123.323 40.8555 123.659 40.3125C123.995 39.7695 124.252 39.625 124.252 39.625C124.288 39.5977 124.319 39.5664 124.346 39.5312C126.327 38.75 127.971 38.7266 129.221 38.9375C130.452 39.1445 131.292 39.6055 131.534 39.7812C131.538 39.7852 131.561 39.8086 131.565 39.8125C133.127 41.0703 133.159 42.3438 133.159 42.3438C133.178 42.7695 133.467 43.1328 133.877 43.2539C134.284 43.3711 134.725 43.2227 134.971 42.875C134.971 42.875 137.065 40.0977 137.065 36.5C137.065 34.1562 136.045 32.1523 134.659 30.5625C133.338 29.0469 131.682 27.8984 130.159 27.0625C129.682 25.6211 128.6 24.6602 127.565 24.3125C127.245 23.4219 126.463 21.8711 124.596 20.5312C122.631 19.1211 119.514 18 114.565 18ZM116.471 24.0938C116.096 24.1602 115.795 24.4336 115.69 24.7969C115.585 25.1641 115.694 25.5547 115.971 25.8125C116.397 26.2383 116.85 26.5469 117.315 26.8125C116.518 26.9219 115.667 27 114.659 27C111.264 27 108.667 27.9961 106.721 29C104.776 30.0039 103.323 30.9336 102.909 31C102.358 31.0352 101.936 31.5117 101.971 32.0625C102.006 32.6133 102.483 33.0352 103.034 33C104.745 33.0469 105.995 33.5625 106.815 34.2812C107.635 35 108.065 35.9219 108.065 37C108.065 39.4492 106.698 42.082 104.596 46.125C102.495 50.168 99.7447 55.5664 97.2212 63.5938C97.0884 63.9414 97.1626 64.332 97.4087 64.6133C97.6548 64.8906 98.0337 65.0078 98.397 64.918C98.7564 64.832 99.0376 64.5469 99.1275 64.1875C101.604 56.3125 104.28 51.0938 106.377 47.0625C108.475 43.0312 110.065 40.1523 110.065 37C110.065 35.3789 109.389 33.8594 108.159 32.7812C107.604 32.293 106.905 31.918 106.159 31.625C106.627 31.3359 107.065 31.0742 107.627 30.7812C108.608 30.2734 109.749 29.7734 111.065 29.4375C111.065 29.4609 111.065 29.4766 111.065 29.5C111.065 31.4219 112.643 33 114.565 33C116.487 33 118.065 31.4219 118.065 29.5C118.065 29.3945 118.096 29.1055 118.034 28.75C119.131 28.5586 120.174 28.2344 121.159 27.6562C121.522 27.4297 121.702 26.9961 121.6 26.5781C121.502 26.1602 121.147 25.8516 120.721 25.8125C120.721 25.8125 118.639 25.668 117.377 24.4062C117.17 24.1836 116.87 24.0703 116.565 24.0938C116.534 24.0938 116.502 24.0938 116.471 24.0938ZM125.252 26C125.272 26 125.295 26 125.315 26C125.315 26 126.116 25.9609 126.909 26.2188C127.702 26.4766 128.327 26.8516 128.471 27.9375C128.514 28.2578 128.713 28.5391 129.002 28.6875C130.42 29.4453 131.963 30.5391 133.127 31.875C134.292 33.2109 135.065 34.7422 135.065 36.5C135.065 37.8047 134.678 38.9766 134.284 39.9062C134.085 39.5781 133.831 39.2617 133.534 38.9375C133.487 38.7578 133.389 38.5977 133.252 38.4688C130.135 35.5625 126.999 34.6562 124.659 34.5312C122.319 34.4062 120.69 35.0625 120.69 35.0625C120.17 35.2695 119.92 35.8555 120.127 36.375C120.335 36.8945 120.92 37.1445 121.44 36.9375C121.44 36.9375 122.627 36.4297 124.565 36.5312C125.186 36.5625 125.885 36.6758 126.627 36.875C125.686 36.9844 124.674 37.2305 123.596 37.6562C123.585 37.668 123.577 37.6758 123.565 37.6875C123.053 37.9023 121.12 38.0156 119.565 37.6875C118.788 37.5234 118.081 37.2734 117.659 37C117.237 36.7266 117.159 36.5547 117.159 36.4062C117.159 35.9492 117.35 35.6992 117.94 35.3438C118.53 34.9883 119.452 34.6953 120.44 34.4062C121.428 34.1172 122.456 33.8438 123.346 33.4062C123.792 33.1875 124.217 32.9219 124.565 32.5312C124.913 32.1406 125.159 31.5859 125.159 31C125.159 30.9883 125.159 30.9805 125.159 30.9688C125.1 29.582 124.639 28.0742 124.565 27.0625C124.53 26.5547 124.608 26.2344 124.659 26.1562C124.71 26.0781 124.71 26 125.252 26ZM114.659 29C114.713 29 114.76 29 114.815 29C114.799 29.0664 114.752 29.1172 114.752 29.1875C114.752 29.7383 115.202 30.1875 115.752 30.1875C115.807 30.1875 115.858 30.1641 115.909 30.1562C115.678 30.668 115.198 31 114.565 31C113.69 31 113.065 30.375 113.065 29.5C113.065 29.4531 113.12 29.2578 113.159 29.0938C113.639 29.0469 114.135 29 114.659 29ZM128.065 29.4688C128.022 29.4766 127.979 29.4883 127.94 29.5C127.475 29.6055 127.147 30.0234 127.159 30.5C127.159 31.168 126.909 31.4688 126.909 31.4688C126.655 31.7383 126.569 32.1289 126.69 32.4805C126.811 32.832 127.116 33.0859 127.483 33.1445C127.85 33.1992 128.217 33.0508 128.44 32.75C128.44 32.75 129.159 31.832 129.159 30.5C129.17 30.2109 129.053 29.9336 128.846 29.7383C128.635 29.5391 128.35 29.4414 128.065 29.4688Z" fill="#2C5FE2"/>
<mask id="path-9-inside-3_135_4" fill="white">
<path d="M75 80H150V139C150 147.837 142.837 155 134 155H75V80Z"/>
</mask>
<path d="M75 80H150V139C150 147.837 142.837 155 134 155H75V80Z" fill="#EF879A"/>
<path d="M74 79H152L148 81H76L74 79ZM152 139C152 148.941 143.941 157 134 157H74L76 153H134C141.732 153 148 146.732 148 139H152ZM74 157V79L76 81V153L74 157ZM152 79V139C152 148.941 143.941 157 134 157V153C141.732 153 148 146.732 148 139V81L152 79Z" fill="black" mask="url(#path-9-inside-3_135_4)"/>
<mask id="path-11-inside-4_135_4" fill="white">
<path d="M0 80H75V155H16C7.16344 155 0 147.837 0 139V80Z"/>
</mask>
<path d="M0 80H75V155H16C7.16344 155 0 147.837 0 139V80Z" fill="#B4DCF3"/>
<path d="M-2 79H75V81H2L-2 79ZM75 157H16C6.05887 157 -2 148.941 -2 139H2C2 146.732 8.26801 153 16 153H75V157ZM16 157C6.05887 157 -2 148.941 -2 139V79L2 81V139C2 146.732 8.26801 153 16 153V157ZM75 80V155V80Z" fill="black" mask="url(#path-11-inside-4_135_4)"/>
<path d="M95.8286 94.52C96.6686 94.56 97.7686 94.6 99.1286 94.64C100.489 94.68 101.829 94.7 103.149 94.7C105.029 94.7 106.829 94.68 108.549 94.64C110.269 94.6 111.489 94.58 112.209 94.58C116.409 94.58 119.569 95.46 121.689 97.22C123.809 98.98 124.869 101.24 124.869 104C124.869 105.4 124.569 106.78 123.969 108.14C123.409 109.46 122.449 110.68 121.089 111.8C119.769 112.88 117.989 113.76 115.749 114.44V114.56C118.909 114.96 121.369 115.72 123.129 116.84C124.929 117.92 126.189 119.2 126.909 120.68C127.629 122.16 127.989 123.72 127.989 125.36C127.989 127.64 127.409 129.66 126.249 131.42C125.129 133.14 123.489 134.5 121.329 135.5C119.169 136.5 116.589 137 113.589 137C112.709 137 111.389 136.98 109.629 136.94C107.869 136.86 105.749 136.82 103.269 136.82C101.869 136.82 100.489 136.84 99.1286 136.88C97.7686 136.88 96.6686 136.92 95.8286 137V135.8C97.1886 135.72 98.2086 135.56 98.8886 135.32C99.6086 135.08 100.089 134.6 100.329 133.88C100.569 133.16 100.689 132.08 100.689 130.64V100.88C100.689 99.4 100.569 98.32 100.329 97.64C100.089 96.92 99.6086 96.44 98.8886 96.2C98.2086 95.92 97.1886 95.76 95.8286 95.72V94.52ZM110.709 95.72C108.869 95.72 107.669 96.06 107.109 96.74C106.549 97.42 106.269 98.8 106.269 100.88V130.64C106.269 132.04 106.389 133.1 106.629 133.82C106.869 134.54 107.309 135.02 107.949 135.26C108.589 135.5 109.529 135.62 110.769 135.62C114.689 135.62 117.529 134.72 119.289 132.92C121.089 131.08 121.989 128.48 121.989 125.12C121.989 122.04 121.149 119.66 119.469 117.98C117.829 116.3 115.109 115.46 111.309 115.46H105.129C105.129 115.46 105.129 115.3 105.129 114.98C105.129 114.62 105.129 114.44 105.129 114.44H110.289C112.649 114.44 114.469 114 115.749 113.12C117.029 112.2 117.909 111 118.389 109.52C118.869 108 119.109 106.38 119.109 104.66C119.109 101.7 118.449 99.48 117.129 98C115.849 96.48 113.709 95.72 110.709 95.72Z" fill="black"/>
<path d="M39.6085 94.0001C39.3993 94.002 39.1946 94.0609 39.0165 94.1706C38.8383 94.2802 38.6934 94.4363 38.5974 94.6221C38.5014 94.8079 38.4578 95.0164 38.4715 95.2252C38.4851 95.4339 38.5554 95.635 38.6749 95.8067C39.321 96.763 39.2569 97.1777 39.2061 97.4336C39.1464 97.7345 38.9721 97.9656 38.6358 98.3946C38.2995 98.8235 37.7806 99.5142 37.7706 100.473V100.475C37.7589 101.62 38.3845 102.41 38.7764 102.84C38.8766 102.957 38.9993 103.052 39.1372 103.121C39.275 103.189 39.4252 103.23 39.5789 103.239C39.7326 103.249 39.8866 103.227 40.0318 103.176C40.177 103.125 40.3105 103.045 40.4242 102.941C40.538 102.837 40.6298 102.712 40.6942 102.572C40.7586 102.432 40.7942 102.281 40.799 102.127C40.8038 101.973 40.7777 101.82 40.7221 101.676C40.6666 101.533 40.5828 101.402 40.4756 101.291C40.2535 101.047 40.0671 100.722 40.0694 100.498C40.0714 100.312 40.1377 100.204 40.4444 99.8126C40.7511 99.4213 41.2776 98.8101 41.462 97.8809C41.6192 97.0888 41.493 95.8693 40.5811 94.5196C40.4755 94.3584 40.3311 94.2264 40.1611 94.1356C39.9912 94.0449 39.8011 93.9982 39.6085 94.0001ZM56.1026 100.01C55.7978 100 55.5016 100.112 55.2793 100.321C55.057 100.53 54.9267 100.818 54.917 101.123C54.9018 101.454 54.8052 101.813 54.6456 101.969C54.5119 102.1 54.3894 102.128 53.8956 102.188C53.4017 102.247 52.5969 102.309 51.8096 102.836C51.1413 103.284 50.3668 104.236 50.0577 105.836C50.0257 105.986 50.0239 106.14 50.0523 106.29C50.0807 106.44 50.1388 106.583 50.2232 106.711C50.3075 106.838 50.4164 106.948 50.5436 107.033C50.6707 107.118 50.8135 107.176 50.9636 107.205C51.1137 107.235 51.2681 107.233 51.4177 107.202C51.5674 107.171 51.7093 107.11 51.8352 107.023C51.961 106.936 52.0684 106.825 52.1508 106.697C52.2333 106.568 52.2893 106.424 52.3155 106.273C52.5343 105.141 52.8713 104.892 53.0889 104.746C53.3437 104.575 53.63 104.538 54.171 104.473C54.7119 104.407 55.5676 104.284 56.253 103.613C57.0733 102.811 57.1891 101.81 57.2159 101.229C57.2251 101.075 57.2034 100.921 57.1521 100.776C57.1008 100.631 57.0208 100.497 56.917 100.384C56.8132 100.27 56.6876 100.178 56.5477 100.114C56.4078 100.05 56.2565 100.014 56.1026 100.01ZM23.1768 100.022C22.89 100.022 22.6136 100.129 22.4018 100.323C22.1901 100.516 22.0584 100.782 22.0325 101.068C22.0065 101.353 22.0883 101.638 22.2617 101.867C22.4351 102.095 22.6877 102.251 22.9698 102.303C24.102 102.522 24.3493 102.861 24.4952 103.078C24.6658 103.333 24.7051 103.619 24.7706 104.16C24.836 104.701 24.9577 105.557 25.628 106.242C26.4299 107.063 27.4317 107.176 28.0127 107.203C28.1661 107.215 28.3202 107.195 28.4659 107.146C28.6117 107.097 28.746 107.019 28.8611 106.917C28.9762 106.815 29.0697 106.691 29.136 106.552C29.2023 106.413 29.2401 106.263 29.2471 106.109C29.2542 105.955 29.2304 105.802 29.1771 105.658C29.1238 105.513 29.0421 105.381 28.9368 105.269C28.8315 105.157 28.7049 105.067 28.5643 105.005C28.4237 104.942 28.272 104.909 28.1182 104.906C27.7873 104.891 27.4286 104.793 27.2725 104.633C27.1418 104.499 27.1135 104.377 27.0538 103.883C26.994 103.389 26.9327 102.584 26.4053 101.797C25.9572 101.129 25.0051 100.354 23.4053 100.045C23.3301 100.03 23.2536 100.022 23.1768 100.022ZM39.4502 105.938C39.2864 105.935 39.1239 105.968 38.9737 106.033C32.8755 106.299 27.9502 111.276 27.9502 117.438C27.9502 123.768 33.1204 128.938 39.4502 128.938C45.781 128.938 50.9502 123.768 50.9502 117.438C50.9502 111.274 46.0227 106.296 39.921 106.033C39.7725 105.969 39.6121 105.936 39.4502 105.938ZM39.4502 108.238C44.5334 108.238 48.6495 112.355 48.6495 117.438C48.6495 122.521 44.5335 126.637 39.4502 126.637C34.3681 126.637 30.251 122.521 30.251 117.438C30.251 112.356 34.3682 108.238 39.4502 108.238ZM42.9502 112.209C41.7804 112.209 40.7333 112.962 40.3604 114.072C40.3063 114.217 40.2818 114.371 40.2885 114.525C40.2951 114.679 40.3328 114.831 40.3992 114.97C40.4656 115.11 40.5594 115.234 40.675 115.337C40.7906 115.439 40.9256 115.517 41.072 115.566C41.2185 115.615 41.3732 115.634 41.5272 115.622C41.6811 115.61 41.8311 115.567 41.9681 115.496C42.1051 115.425 42.2263 115.327 42.3246 115.208C42.4229 115.088 42.4962 114.951 42.5401 114.803C42.5992 114.627 42.7641 114.51 42.9502 114.51C43.1364 114.51 43.3013 114.627 43.3604 114.803C43.4043 114.951 43.4776 115.088 43.5759 115.208C43.6742 115.327 43.7954 115.425 43.9324 115.496C44.0694 115.567 44.2194 115.61 44.3733 115.622C44.5273 115.634 44.682 115.615 44.8284 115.566C44.9749 115.517 45.1099 115.439 45.2255 115.337C45.3411 115.234 45.4349 115.11 45.5013 114.97C45.5677 114.831 45.6054 114.679 45.612 114.525C45.6187 114.371 45.5942 114.217 45.5401 114.072C45.1672 112.962 44.1201 112.209 42.9502 112.209ZM36.003 112.256C34.8468 112.234 33.7975 112.943 33.378 114.02C33.3231 114.16 33.2964 114.311 33.2996 114.462C33.3027 114.613 33.3356 114.762 33.3964 114.9C33.4571 115.039 33.5446 115.164 33.6536 115.268C33.7627 115.373 33.8914 115.455 34.0322 115.51C34.173 115.565 34.3233 115.592 34.4744 115.588C34.6255 115.585 34.7745 115.552 34.9129 115.491C35.0513 115.431 35.1764 115.343 35.281 115.234C35.3856 115.125 35.4676 114.996 35.5225 114.856C35.595 114.67 35.7723 114.553 35.9581 114.557H35.96C36.1388 114.56 36.3075 114.675 36.378 114.856C36.4329 114.996 36.5149 115.125 36.6195 115.234C36.7241 115.343 36.8492 115.431 36.9876 115.491C37.126 115.552 37.275 115.585 37.4261 115.588C37.5772 115.592 37.7275 115.565 37.8683 115.51C38.0091 115.455 38.1378 115.373 38.2468 115.268C38.3559 115.164 38.4434 115.039 38.5041 114.9C38.5649 114.762 38.5978 114.613 38.6009 114.462C38.6041 114.311 38.5774 114.16 38.5225 114.02C38.117 112.98 37.1222 112.277 36.003 112.256ZM57.2237 114.723C56.4833 114.735 55.5446 114.978 54.5323 115.662C54.4053 115.746 54.2962 115.854 54.2113 115.98C54.1264 116.106 54.0674 116.248 54.0377 116.397C54.0079 116.546 54.008 116.7 54.038 116.849C54.068 116.998 54.1273 117.14 54.2124 117.266C54.2975 117.392 54.4067 117.5 54.5338 117.583C54.6609 117.667 54.8033 117.724 54.9527 117.752C55.1022 117.781 55.2557 117.779 55.4045 117.747C55.5533 117.716 55.6943 117.655 55.8194 117.568C56.7757 116.922 57.1904 116.984 57.4463 117.035C57.7472 117.095 57.9783 117.271 58.4073 117.607C58.8362 117.944 59.5269 118.461 60.4854 118.471H60.4874C61.6331 118.482 62.4224 117.857 62.8526 117.465C62.9695 117.365 63.065 117.242 63.1336 117.104C63.2022 116.966 63.2424 116.816 63.2518 116.662C63.2613 116.509 63.2398 116.355 63.1886 116.21C63.1374 116.064 63.0576 115.931 62.9539 115.817C62.8502 115.703 62.7247 115.611 62.5848 115.547C62.445 115.483 62.2936 115.447 62.1397 115.442C61.9858 115.437 61.8325 115.464 61.6889 115.519C61.5453 115.575 61.4144 115.659 61.3038 115.766C61.06 115.988 60.7351 116.174 60.5108 116.172C60.3243 116.17 60.2165 116.104 59.8252 115.797C59.434 115.49 58.8228 114.964 57.8936 114.779C57.6956 114.74 57.4705 114.719 57.2237 114.723ZM18.7667 114.758C17.621 114.746 16.8316 115.372 16.4014 115.764C16.2845 115.864 16.189 115.987 16.1204 116.124C16.0518 116.262 16.0116 116.413 16.0022 116.566C15.9927 116.72 16.0142 116.874 16.0654 117.019C16.1166 117.164 16.1964 117.298 16.3001 117.412C16.4038 117.525 16.5293 117.617 16.6692 117.682C16.8091 117.746 16.9604 117.782 17.1143 117.786C17.2682 117.791 17.4215 117.765 17.5651 117.709C17.7087 117.654 17.8397 117.57 17.9502 117.463C18.194 117.241 18.5189 117.054 18.7432 117.057C18.9297 117.059 19.0375 117.125 19.4288 117.432C19.8201 117.738 20.4312 118.265 21.3604 118.449C22.1525 118.606 23.3729 118.48 24.7217 117.568C24.9745 117.397 25.149 117.133 25.2069 116.833C25.2648 116.534 25.2013 116.224 25.0303 115.971C24.8594 115.718 24.595 115.543 24.2954 115.486C23.9958 115.428 23.6855 115.491 23.4327 115.662C22.4764 116.308 22.0636 116.244 21.8077 116.193C21.5068 116.134 21.2757 115.959 20.8467 115.623C20.4178 115.287 19.7252 114.768 18.7667 114.758ZM34.4502 118.438C34.3003 118.437 34.1522 118.471 34.017 118.536C33.8818 118.601 33.7629 118.695 33.6691 118.812C33.5754 118.929 33.5091 119.066 33.4753 119.212C33.4414 119.358 33.4409 119.51 33.4737 119.656C34.1 122.441 36.596 124.438 39.4502 124.438C42.3045 124.438 44.8005 122.441 45.4268 119.656C45.4596 119.51 45.4591 119.358 45.4252 119.212C45.3914 119.066 45.3251 118.929 45.2314 118.812C45.1376 118.695 45.0187 118.601 44.8835 118.536C44.7483 118.471 44.6002 118.437 44.4502 118.438H34.4502ZM36.1905 120.438H42.71C41.9628 121.571 40.8656 122.438 39.4502 122.438C38.0349 122.438 36.9377 121.571 36.1905 120.438ZM27.042 128.008C26.7769 128.015 26.5221 128.113 26.321 128.286C26.1199 128.459 25.9848 128.696 25.9385 128.957C25.7197 130.089 25.3808 130.337 25.1631 130.482C24.9087 130.652 24.6231 130.692 24.0831 130.758C23.5421 130.823 22.6864 130.945 22.001 131.615C21.1807 132.417 21.0649 133.419 21.0381 134C21.0312 134.151 21.054 134.302 21.1054 134.444C21.1567 134.586 21.2356 134.717 21.3374 134.828C21.4393 134.94 21.5621 135.031 21.6989 135.095C21.8357 135.159 21.9838 135.195 22.1348 135.202C22.2858 135.209 22.4366 135.186 22.5787 135.135C22.7209 135.084 22.8515 135.005 22.9631 134.903C23.0747 134.801 23.1652 134.678 23.2294 134.541C23.2935 134.405 23.3301 134.256 23.337 134.106C23.3522 133.775 23.4488 133.416 23.6085 133.26C23.7421 133.129 23.8646 133.101 24.3585 133.041C24.8523 132.981 25.6571 132.92 26.4444 132.393C27.1127 131.945 27.8872 130.992 28.1963 129.393C28.2318 129.223 28.2284 129.047 28.1864 128.879C28.1444 128.711 28.0649 128.554 27.9539 128.421C27.8429 128.288 27.7032 128.182 27.5453 128.11C27.3874 128.039 27.2154 128.004 27.042 128.008ZM50.1768 128.022C49.89 128.022 49.6136 128.129 49.4018 128.323C49.1901 128.516 49.0584 128.782 49.0325 129.068C49.0065 129.353 49.0883 129.638 49.2617 129.867C49.4351 130.095 49.6877 130.251 49.9698 130.303C51.102 130.522 51.3493 130.861 51.4952 131.078C51.6658 131.333 51.7051 131.619 51.7706 132.16C51.836 132.701 51.9577 133.557 52.628 134.242C53.4299 135.063 54.4317 135.176 55.0127 135.203C55.1661 135.215 55.3202 135.195 55.4659 135.146C55.6117 135.097 55.746 135.019 55.8611 134.917C55.9762 134.815 56.0697 134.691 56.136 134.552C56.2023 134.413 56.2401 134.263 56.2471 134.109C56.2542 133.955 56.2304 133.802 56.1771 133.658C56.1238 133.513 56.0421 133.381 55.9368 133.269C55.8315 133.157 55.7049 133.067 55.5643 133.005C55.4237 132.942 55.272 132.909 55.1182 132.906C54.7873 132.891 54.4286 132.793 54.2725 132.633C54.1418 132.499 54.1135 132.377 54.0538 131.883C53.994 131.389 53.9327 130.584 53.4053 129.797C52.9572 129.129 52.0051 128.354 50.4053 128.045C50.3301 128.03 50.2536 128.022 50.1768 128.022ZM39.6085 132C39.3993 132.002 39.1946 132.061 39.0165 132.171C38.8383 132.28 38.6934 132.436 38.5974 132.622C38.5014 132.808 38.4578 133.016 38.4715 133.225C38.4851 133.434 38.5554 133.635 38.6749 133.807C39.321 134.763 39.2569 135.178 39.2061 135.434C39.1464 135.734 38.9721 135.966 38.6358 136.395C38.2995 136.824 37.7806 137.514 37.7706 138.473V138.475C37.7589 139.62 38.3845 140.41 38.7764 140.84C38.8766 140.957 38.9993 141.052 39.1372 141.121C39.275 141.189 39.4252 141.23 39.5789 141.239C39.7326 141.249 39.8866 141.227 40.0318 141.176C40.177 141.125 40.3105 141.045 40.4242 140.941C40.538 140.837 40.6298 140.712 40.6942 140.572C40.7586 140.432 40.7942 140.281 40.799 140.127C40.8038 139.973 40.7777 139.82 40.7221 139.676C40.6666 139.533 40.5828 139.402 40.4756 139.291C40.2535 139.047 40.0671 138.722 40.0694 138.498C40.0714 138.312 40.1377 138.204 40.4444 137.813C40.7511 137.421 41.2776 136.81 41.462 135.881C41.6192 135.089 41.493 133.869 40.5811 132.52C40.4755 132.358 40.3311 132.226 40.1611 132.136C39.9912 132.045 39.8011 131.998 39.6085 132Z" fill="#E07141"/>
<defs>
<filter id="filter0_d_135_4" x="0" y="5" width="156" height="156" filterUnits="userSpaceOnUse" color-interpolation-filters="sRGB">
<feFlood flood-opacity="0" result="BackgroundImageFix"/>
<feColorMatrix in="SourceAlpha" type="matrix" values="0 0 0 0 0 0 0 0 0 0 0 0 0 0 0 0 0 0 127 0" result="hardAlpha"/>
<feOffset dx="6" dy="6"/>
<feComposite in2="hardAlpha" operator="out"/>
<feColorMatrix type="matrix" values="0 0 0 0 0 0 0 0 0 0 0 0 0 0 0 0 0 0 1 0"/>
<feBlend mode="normal" in2="BackgroundImageFix" result="effect1_dropShadow_135_4"/>
<feBlend mode="normal" in="SourceGraphic" in2="effect1_dropShadow_135_4" result="shape"/>
</filter>
</defs>
</svg>
