<svg xmlns="http://www.w3.org/2000/svg"  viewBox="0 0 100 100" width="100px" height="100px"><path d="M 38.5 11.648438 C 31.055637 11.648438 25 17.704073 25 25.148438 C 25 30.805591 28.505142 35.643273 33.451172 37.648438 C 28.505119 39.653592 25 44.491267 25 50.148438 C 25 55.873167 28.587107 60.764689 33.626953 62.724609 C 28.566473 64.835823 25 69.831179 25 75.648438 C 25 83.368826 31.27961 89.648438 39 89.648438 C 46.72039 89.648438 53 83.368826 53 75.648438 L 53 62.648438 L 53 51.148438 L 53 38.648438 L 65.5 38.648438 C 72.94446 38.648438 79 32.591878 79 25.148438 C 79 17.704073 72.944363 11.648437 65.5 11.648438 L 52 11.648438 L 38.5 11.648438 z M 65.5 38.648438 C 58.608281 38.648438 53 44.256723 53 51.148438 C 53 58.040151 58.608281 63.648436 65.5 63.648438 C 72.391719 63.648438 78 58.040151 78 51.148438 C 78 44.256723 72.391719 38.648437 65.5 38.648438 z M 38.5 13.648438 L 51 13.648438 L 51 36.648438 L 38.5 36.648438 C 32.136363 36.648438 27 31.512073 27 25.148438 C 27 18.7848 32.136363 13.648437 38.5 13.648438 z M 53 13.648438 L 65.5 13.648438 C 71.863637 13.648438 77 18.784801 77 25.148438 C 77 31.510995 71.86354 36.648438 65.5 36.648438 L 53 36.648438 L 53 13.648438 z M 56.859375 16.648438 A 0.50005 0.50005 0 1 0 56.859375 17.648438 L 62.5 17.648438 A 0.50005 0.50005 0 1 0 62.5 16.648438 L 56.859375 16.648438 z M 65.5 16.648438 A 0.50005 0.50005 0 1 0 65.5 17.648438 C 69.647742 17.648438 73 21.000695 73 25.148438 A 0.50005 0.50005 0 1 0 74 25.148438 C 74 20.460178 70.188258 16.648437 65.5 16.648438 z M 38.5 38.648438 L 51 38.648438 L 51 61.648438 L 39 61.648438 L 38.5 61.648438 C 32.136363 61.648438 27 56.512073 27 50.148438 C 27 43.784801 32.136363 38.648437 38.5 38.648438 z M 65.5 40.648438 C 71.310839 40.648438 76 45.337601 76 51.148438 C 76 56.959272 71.310839 61.648437 65.5 61.648438 C 59.689161 61.648438 55 56.959272 55 51.148438 C 55 45.337601 59.689161 40.648436 65.5 40.648438 z M 65.5 43.648438 C 63.197442 43.648438 61.131101 44.691544 59.755859 46.328125 A 0.50005 0.50005 0 1 0 60.521484 46.970703 C 61.714242 45.551284 63.498558 44.648437 65.5 44.648438 A 0.50005 0.50005 0 1 0 65.5 43.648438 z M 58.492188 50.642578 A 0.50005 0.50005 0 0 0 58 51.148438 C 58 52.297545 58.259669 53.38908 58.722656 54.363281 A 0.50005 0.50005 0 1 0 59.625 53.933594 C 59.223987 53.089795 59 52.147329 59 51.148438 A 0.50005 0.50005 0 0 0 58.492188 50.642578 z M 72.492188 50.642578 A 0.50005 0.50005 0 0 0 72 51.148438 C 72 51.794995 71.90581 52.417683 71.730469 53.005859 A 0.50024115 0.50024115 0 1 0 72.689453 53.291016 C 72.892114 52.611192 73 51.891879 73 51.148438 A 0.50005 0.50005 0 0 0 72.492188 50.642578 z M 70.859375 55.144531 A 0.50005 0.50005 0 0 0 70.478516 55.328125 C 69.285758 56.747544 67.501442 57.648437 65.5 57.648438 C 64.501109 57.648438 63.558642 57.42445 62.714844 57.023438 A 0.50005 0.50005 0 1 0 62.285156 57.925781 C 63.259358 58.388768 64.350891 58.648438 65.5 58.648438 C 67.802558 58.648438 69.868899 57.607284 71.244141 55.970703 A 0.50005 0.50005 0 0 0 70.859375 55.144531 z M 39 63.648438 L 51 63.648438 L 51 75.648438 C 51 82.288048 45.63961 87.648438 39 87.648438 C 32.36039 87.648438 27 82.288048 27 75.648438 C 27 69.008826 32.36039 63.648437 39 63.648438 z M 47.492188 66.642578 A 0.50005 0.50005 0 0 0 47 67.148438 L 47 69.148438 A 0.50005 0.50005 0 1 0 48 69.148438 L 48 67.148438 A 0.50005 0.50005 0 0 0 47.492188 66.642578 z M 47.492188 71.642578 A 0.50005 0.50005 0 0 0 47 72.148438 L 47 75.648438 C 47 76.131141 46.95681 76.602604 46.875 77.060547 A 0.50005 0.50005 0 1 0 47.859375 77.236328 C 47.951566 76.720271 48 76.189734 48 75.648438 L 48 72.148438 A 0.50005 0.50005 0 0 0 47.492188 71.642578 z M 30.492188 75.142578 A 0.50005 0.50005 0 0 0 30 75.648438 C 30 80.612712 34.035726 84.648438 39 84.648438 C 40.319848 84.648438 41.576868 84.363155 42.707031 83.851562 A 0.50005 0.50005 0 1 0 42.292969 82.941406 C 41.289132 83.395814 40.176152 83.648438 39 83.648438 C 34.576274 83.648438 31 80.072163 31 75.648438 A 0.50005 0.50005 0 0 0 30.492188 75.142578 z M 46.1875 79.642578 A 0.50005 0.50005 0 0 0 45.787109 79.884766 C 45.467339 80.396398 45.091 80.870006 44.666016 81.296875 A 0.50005 0.50005 0 1 0 45.375 82.001953 C 45.852015 81.522822 46.276489 80.99043 46.636719 80.414062 A 0.50005 0.50005 0 0 0 46.238281 79.642578 A 0.50005 0.50005 0 0 0 46.1875 79.642578 z"/></svg>