<svg xmlns="http://www.w3.org/2000/svg"  viewBox="0 0 50 50" width="50px" height="50px"><path d="M 24.996094 1 A 1.0001 1.0001 0 0 0 24.21875 1.375 L 23.34375 2.46875 C 22.881828 3.0461525 22.541913 3.7164765 22.316406 4.4355469 C 21.833716 3.8568672 21.264291 3.3656758 20.617188 3.0078125 L 19.392578 2.3300781 A 1.0001 1.0001 0 0 0 18.914062 2.2050781 A 1.0001 1.0001 0 0 0 17.947266 2.9238281 L 17.554688 4.2695312 C 17.337218 5.0118804 17.306018 5.7950254 17.386719 6.5800781 C 16.693547 6.2037039 15.958006 5.9330875 15.189453 5.8476562 L 15.1875 5.8476562 L 13.796875 5.6914062 A 1.0001 1.0001 0 0 0 12.691406 6.796875 L 12.847656 8.1894531 C 12.930786 8.9372864 13.183725 9.6567673 13.542969 10.333984 C 12.779576 10.260364 12.018362 10.300834 11.294922 10.509766 L 9.9492188 10.898438 A 1.0001 1.0001 0 0 0 9.3496094 12.339844 L 10.023438 13.568359 C 10.388077 14.232594 10.894341 14.813559 11.490234 15.304688 C 10.752068 15.529712 10.062234 15.87105 9.4707031 16.34375 A 1.0001 1.0001 0 0 0 9.46875 16.34375 L 8.375 17.21875 A 1.0001 1.0001 0 0 0 8.375 18.78125 L 9.46875 19.65625 C 10.059858 20.129137 10.749689 20.470354 11.488281 20.695312 C 10.892924 21.18624 10.387829 21.767856 10.023438 22.431641 L 9.3496094 23.660156 A 1.0001 1.0001 0 0 0 9.9492188 25.101562 L 11.294922 25.490234 C 12.018362 25.69917 12.779576 25.739635 13.542969 25.666016 C 13.1834 26.343919 12.9306 27.064051 12.847656 27.8125 L 12.691406 29.203125 A 1.0001 1.0001 0 0 0 13.796875 30.308594 L 15.1875 30.152344 C 15.956737 30.067094 16.693157 29.796564 17.386719 29.419922 C 17.306019 30.204975 17.337219 30.98812 17.554688 31.730469 L 17.947266 33.076172 A 1.0001 1.0001 0 0 0 19.392578 33.669922 L 20.617188 32.992188 C 21.264619 32.634143 21.835519 32.14352 22.318359 31.564453 C 22.543947 32.282232 22.882508 32.952104 23.34375 33.529297 A 1.0001 1.0001 0 0 0 23.34375 33.53125 L 24 34.351562 L 24 42.708984 C 23.652953 41.992737 23.20038 41.211231 22.576172 40.404297 C 20.450684 37.656609 16.472157 34.670661 9.3320312 33.480469 A 1.0001 1.0001 0 0 0 9.1328125 33.466797 A 1.0001 1.0001 0 0 0 8.1796875 34.630859 C 8.8114878 38.421661 11.22605 41.436743 14.208984 43.501953 C 17.191918 45.567163 20.760373 46.728882 23.96875 46.832031 A 1.0001 1.0001 0 0 0 24 46.832031 L 24 50 L 26 50 L 26 46.818359 A 1.0001 1.0001 0 0 0 26.199219 46.832031 C 29.407596 46.728882 32.97605 45.567163 35.958984 43.501953 C 38.941918 41.436743 41.354528 38.421661 41.986328 34.630859 A 1.0001 1.0001 0 0 0 41.035156 33.466797 A 1.0001 1.0001 0 0 0 40.835938 33.480469 C 33.695811 34.670661 29.717285 37.656609 27.591797 40.404297 C 26.862153 41.347532 26.360251 42.261119 26 43.066406 L 26 34.351562 L 26.65625 33.53125 C 27.118172 32.953823 27.458087 32.283529 27.683594 31.564453 C 28.166284 32.143133 28.735709 32.634324 29.382812 32.992188 L 30.607422 33.669922 A 1.0001 1.0001 0 0 0 32.052734 33.076172 L 32.445312 31.730469 C 32.662782 30.98812 32.693982 30.204975 32.613281 29.419922 C 33.306453 29.796296 34.041994 30.066912 34.810547 30.152344 L 36.203125 30.308594 A 1.0001 1.0001 0 0 0 37.308594 29.203125 L 37.152344 27.8125 L 37.152344 27.810547 C 37.069214 27.062714 36.816275 26.343233 36.457031 25.666016 C 37.220424 25.739636 37.981638 25.699166 38.705078 25.490234 L 40.050781 25.101562 A 1.0001 1.0001 0 0 0 40.650391 23.660156 L 39.976562 22.431641 C 39.611923 21.767406 39.105659 21.186441 38.509766 20.695312 C 39.247933 20.470288 39.937765 20.12895 40.529297 19.65625 A 1.0001 1.0001 0 0 0 40.53125 19.65625 L 41.625 18.78125 A 1.0001 1.0001 0 0 0 41.625 17.21875 L 40.53125 16.34375 C 39.940115 15.870863 39.250317 15.529646 38.511719 15.304688 C 39.107076 14.81376 39.612171 14.232144 39.976562 13.568359 L 40.650391 12.339844 A 1.0001 1.0001 0 0 0 40.050781 10.898438 L 38.705078 10.509766 C 37.981638 10.30083 37.220424 10.260365 36.457031 10.333984 C 36.816303 9.6565983 37.069219 8.9372532 37.152344 8.1894531 L 37.152344 8.1875 L 37.308594 6.796875 A 1.0001 1.0001 0 0 0 36.203125 5.6914062 L 34.810547 5.8476562 C 34.04196 5.9330913 33.306285 6.203739 32.613281 6.5800781 C 32.693981 5.7950254 32.662782 5.0118804 32.445312 4.2695312 L 32.052734 2.9238281 A 1.0001 1.0001 0 0 0 31.078125 2.2050781 A 1.0001 1.0001 0 0 0 30.607422 2.3300781 L 29.382812 3.0078125 C 28.735381 3.3658568 28.164481 3.8564806 27.681641 4.4355469 C 27.456053 3.7177684 27.117492 3.0478958 26.65625 2.4707031 A 1.0001 1.0001 0 0 0 26.65625 2.46875 L 25.78125 1.375 A 1.0001 1.0001 0 0 0 24.996094 1 z M 25 3.6015625 L 25.09375 3.71875 C 25.554269 4.2950389 25.742475 5.1475778 25.839844 6 L 25 6 L 24.160156 6 C 24.257541 5.1470191 24.446105 4.2939316 24.90625 3.71875 L 25 3.6015625 z M 19.517578 4.6835938 L 19.650391 4.7578125 C 20.295113 5.1143586 20.794258 5.8322554 21.208984 6.5839844 L 20.333984 6.9453125 L 19.652344 7.2246094 C 19.417549 6.3991767 19.267762 5.538123 19.474609 4.8320312 A 1.0001 1.0001 0 0 0 19.474609 4.8300781 L 19.517578 4.6835938 z M 30.482422 4.6835938 L 30.525391 4.8300781 A 1.0001 1.0001 0 0 0 30.525391 4.8320312 C 30.732238 5.5381231 30.582451 6.399177 30.347656 7.2246094 L 29.666016 6.9453125 L 28.791016 6.5839844 C 29.205742 5.8322554 29.704887 5.1143586 30.349609 4.7578125 L 30.482422 4.6835938 z M 14.818359 7.8183594 L 14.966797 7.8339844 A 1.0001 1.0001 0 0 0 14.96875 7.8339844 C 15.701519 7.9151904 16.439121 8.3848113 17.111328 8.9199219 L 15.921875 10.109375 C 15.387071 9.4368752 14.915131 8.7009826 14.833984 7.96875 A 1.0001 1.0001 0 0 0 14.833984 7.9667969 L 14.818359 7.8183594 z M 35.181641 7.8183594 L 35.166016 7.9667969 A 1.0001 1.0001 0 0 0 35.166016 7.96875 C 35.084806 8.7015186 34.615189 9.439121 34.080078 10.111328 L 32.890625 8.921875 C 33.563125 8.387071 34.299017 7.9151306 35.03125 7.8339844 A 1.0001 1.0001 0 0 0 35.033203 7.8339844 L 35.181641 7.8183594 z M 25 8 C 25.51689 8 26.020156 8.0518279 26.515625 8.1269531 A 1 1 0 0 0 27 10 A 1 1 0 0 0 27.802734 8.4042969 C 28.138084 8.5016551 28.465486 8.6137055 28.785156 8.7441406 L 28.970703 8.8203125 C 30.086667 9.3021887 31.094876 9.9817886 31.955078 10.814453 L 32.1875 11.046875 C 32.246107 11.107454 32.300353 11.172328 32.357422 11.234375 A 1 1 0 0 0 33 13 A 1 1 0 0 0 33.554688 12.832031 C 33.78868 13.219292 34.002986 13.619576 34.183594 14.039062 L 34.246094 14.1875 C 34.261337 14.224549 34.272299 14.263508 34.287109 14.300781 A 1 1 0 0 0 34.796875 15.978516 C 34.930031 16.630879 35 17.307502 35 18 C 35 18.691837 34.929783 19.367746 34.796875 20.019531 C 34.796748 20.020154 34.797002 20.020862 34.796875 20.021484 A 1 1 0 0 0 34.287109 21.699219 C 34.272525 21.735924 34.261099 21.774059 34.246094 21.810547 L 34.181641 21.964844 C 34.001433 22.382893 33.787932 22.781946 33.554688 23.167969 A 1 1 0 0 0 33 23 A 1 1 0 0 0 32.357422 24.765625 C 32.300353 24.827672 32.246107 24.892546 32.1875 24.953125 L 31.955078 25.185547 C 31.093009 26.020018 30.081738 26.699577 28.962891 27.181641 L 28.796875 27.251953 C 28.473028 27.384561 28.14075 27.497074 27.800781 27.595703 A 1 1 0 0 0 27 26 A 1 1 0 0 0 26.515625 27.873047 C 26.020156 27.948172 25.51689 28 25 28 C 24.48311 28 23.979844 27.948172 23.484375 27.873047 A 1 1 0 0 0 23 26 A 1 1 0 0 0 22.197266 27.595703 C 21.861916 27.498345 21.534514 27.386295 21.214844 27.255859 L 21.029297 27.179688 C 19.913333 26.697811 18.905124 26.018211 18.044922 25.185547 L 17.8125 24.953125 C 17.753893 24.892546 17.699647 24.827672 17.642578 24.765625 A 1 1 0 0 0 17 23 A 1 1 0 0 0 16.445312 23.167969 C 16.21132 22.780708 15.997014 22.380424 15.816406 21.960938 L 15.753906 21.8125 C 15.738663 21.775451 15.727701 21.736492 15.712891 21.699219 A 1 1 0 0 0 15.203125 20.021484 C 15.069969 19.369121 15 18.692498 15 18 C 15 17.308163 15.070217 16.632254 15.203125 15.980469 A 1 1 0 0 0 15.203125 15.978516 A 1 1 0 0 0 15.712891 14.300781 C 15.727475 14.264076 15.738901 14.225941 15.753906 14.189453 L 15.818359 14.035156 C 15.998567 13.617107 16.212068 13.218054 16.445312 12.832031 A 1 1 0 0 0 17 13 A 1 1 0 0 0 17.642578 11.234375 C 17.699647 11.172328 17.753893 11.107454 17.8125 11.046875 L 18.044922 10.814453 C 18.906991 9.9799817 19.918262 9.3004235 21.037109 8.8183594 L 21.203125 8.7480469 C 21.526972 8.6154387 21.85925 8.5029263 22.199219 8.4042969 A 1 1 0 0 0 23 10 A 1 1 0 0 0 23.484375 8.1269531 C 23.979844 8.0518279 24.48311 8 25 8 z M 21 11 A 1 1 0 0 0 21 13 A 1 1 0 0 0 21 11 z M 25 11 A 1 1 0 0 0 25 13 A 1 1 0 0 0 25 11 z M 29 11 A 1 1 0 0 0 29 13 A 1 1 0 0 0 29 11 z M 12.40625 12.341797 C 12.985391 12.31014 13.62364 12.441068 14.242188 12.619141 L 13.945312 13.333984 L 13.595703 14.169922 C 12.846135 13.752728 12.13189 13.251318 11.777344 12.605469 L 11.705078 12.472656 L 11.849609 12.431641 C 12.026542 12.380541 12.213203 12.352349 12.40625 12.341797 z M 37.59375 12.341797 C 37.786797 12.352349 37.973458 12.380541 38.150391 12.431641 L 38.294922 12.472656 L 38.222656 12.605469 C 37.86811 13.251318 37.153865 13.752728 36.404297 14.169922 L 36.054688 13.333984 L 35.757812 12.619141 C 36.37636 12.441067 37.014609 12.31014 37.59375 12.341797 z M 19 14 A 1 1 0 0 0 19 16 A 1 1 0 0 0 19 14 z M 23 14 A 1 1 0 0 0 23 16 A 1 1 0 0 0 23 14 z M 27 14 A 1 1 0 0 0 27 16 A 1 1 0 0 0 27 14 z M 31 14 A 1 1 0 0 0 31 16 A 1 1 0 0 0 31 14 z M 17 17 A 1 1 0 0 0 17 19 A 1 1 0 0 0 17 17 z M 21 17 A 1 1 0 0 0 21 19 A 1 1 0 0 0 21 17 z M 25 17 A 1 1 0 0 0 25 19 A 1 1 0 0 0 25 17 z M 29 17 A 1 1 0 0 0 29 19 A 1 1 0 0 0 29 17 z M 33 17 A 1 1 0 0 0 33 19 A 1 1 0 0 0 33 17 z M 13 17.160156 L 13 18 L 13 18.839844 C 12.147019 18.742459 11.293932 18.553895 10.71875 18.09375 L 10.601562 18 L 10.71875 17.90625 C 11.295039 17.445731 12.147578 17.257525 13 17.160156 z M 37 17.160156 C 37.852981 17.257536 38.706068 17.446105 39.28125 17.90625 L 39.398438 18 L 39.28125 18.09375 C 38.704961 18.554269 37.852422 18.742475 37 18.839844 L 37 18 L 37 17.160156 z M 19 20 A 1 1 0 0 0 19 22 A 1 1 0 0 0 19 20 z M 23 20 A 1 1 0 0 0 23 22 A 1 1 0 0 0 23 20 z M 27 20 A 1 1 0 0 0 27 22 A 1 1 0 0 0 27 20 z M 31 20 A 1 1 0 0 0 31 22 A 1 1 0 0 0 31 20 z M 13.595703 21.830078 L 13.945312 22.666016 L 14.242188 23.380859 C 13.417457 23.61829 12.55734 23.772758 11.849609 23.568359 L 11.705078 23.527344 L 11.777344 23.394531 C 12.13189 22.748682 12.846135 22.247272 13.595703 21.830078 z M 36.404297 21.830078 C 37.153865 22.247272 37.86811 22.748682 38.222656 23.394531 L 38.294922 23.527344 L 38.150391 23.568359 C 37.44266 23.772758 36.582543 23.618289 35.757812 23.380859 L 36.054688 22.666016 L 36.404297 21.830078 z M 21 23 A 1 1 0 0 0 21 25 A 1 1 0 0 0 21 23 z M 25 23 A 1 1 0 0 0 25 25 A 1 1 0 0 0 25 23 z M 29 23 A 1 1 0 0 0 29 25 A 1 1 0 0 0 29 23 z M 15.919922 25.888672 L 17.109375 27.078125 C 16.436875 27.612929 15.700983 28.084869 14.96875 28.166016 A 1.0001 1.0001 0 0 0 14.966797 28.166016 L 14.818359 28.181641 L 14.833984 28.033203 A 1.0001 1.0001 0 0 0 14.833984 28.03125 C 14.915194 27.298481 15.384811 26.560879 15.919922 25.888672 z M 34.078125 25.890625 C 34.612929 26.563125 35.084869 27.299017 35.166016 28.03125 A 1.0001 1.0001 0 0 0 35.166016 28.033203 L 35.181641 28.181641 L 35.033203 28.166016 A 1.0001 1.0001 0 0 0 35.03125 28.166016 C 34.298481 28.084806 33.560879 27.615189 32.888672 27.080078 L 34.078125 25.890625 z M 19.652344 28.775391 L 20.333984 29.054688 L 21.208984 29.416016 C 20.794258 30.167745 20.295113 30.885641 19.650391 31.242188 L 19.517578 31.316406 L 19.474609 31.169922 A 1.0001 1.0001 0 0 0 19.474609 31.167969 C 19.267762 30.461877 19.417549 29.600823 19.652344 28.775391 z M 30.347656 28.775391 C 30.582451 29.600823 30.732238 30.461877 30.525391 31.167969 A 1.0001 1.0001 0 0 0 30.525391 31.169922 L 30.482422 31.316406 L 30.349609 31.242188 C 29.704888 30.885549 29.205742 30.167745 28.791016 29.416016 L 29.666016 29.054688 L 30.347656 28.775391 z M 24.160156 30 L 25 30 L 25.839844 30 C 25.742464 30.852981 25.553895 31.706068 25.09375 32.28125 L 25 32.398438 L 24.90625 32.28125 C 24.445731 31.704961 24.257525 30.852422 24.160156 30 z M 10.607422 35.851562 C 16.204184 37.116267 19.33483 39.483861 20.994141 41.628906 C 21.875403 42.768143 22.346201 43.790933 22.626953 44.566406 C 20.193872 44.236553 17.574591 43.399222 15.347656 41.857422 C 13.152772 40.337812 11.446048 38.28791 10.607422 35.851562 z M 39.558594 35.851562 C 38.719945 38.287838 37.015149 40.337845 34.820312 41.857422 C 32.593949 43.398827 29.973591 44.2363 27.541016 44.566406 C 27.821768 43.790933 28.292565 42.768143 29.173828 41.628906 C 30.833071 39.483949 33.962273 37.116309 39.558594 35.851562 z"/></svg>